<?xml version="1.0" standalone="no"?>
<!DOCTYPE svg PUBLIC "-//W3C//DTD SVG 20010904//EN"
 "http://www.w3.org/TR/2001/REC-SVG-20010904/DTD/svg10.dtd">
<svg version="1.0" xmlns="http://www.w3.org/2000/svg"
 width="100.000000pt" height="100.000000pt" viewBox="0 0 100.000000 100.000000"
 preserveAspectRatio="xMidYMid meet">

<g transform="translate(0.000000,100.000000) scale(0.100000,-0.100000)"
fill="#000000" stroke="none">
<path d="M365 976 c-232 -74 -381 -306 -345 -540 25 -163 128 -303 277 -374
77 -37 79 -37 203 -37 124 0 126 0 203 37 195 93 310 306 277 514 -29 189
-165 344 -349 400 -57 17 -212 17 -266 0z m175 -123 l0 -47 -30 29 -30 29 0
-27 c0 -15 -4 -27 -10 -27 -5 0 -10 18 -10 40 0 46 5 48 37 18 22 -21 23 -21
23 -1 0 18 8 33 17 33 2 0 3 -21 3 -47z m-96 6 c7 -36 -7 -59 -35 -59 -21 0
-24 5 -34 48 -4 18 -3 32 3 32 5 0 12 -13 16 -30 3 -19 12 -30 22 -30 13 0 15
7 10 35 -4 19 -3 35 2 35 5 0 12 -14 16 -31z m170 18 c27 -19 18 -71 -12 -75
-44 -6 -51 3 -40 47 11 43 23 49 52 28z m-256 -42 c17 -36 15 -50 -3 -35 -12
10 -15 9 -15 -4 0 -13 -5 -16 -19 -11 -16 5 -18 2 -14 -15 9 -33 -5 -23 -27
20 -22 43 -17 49 16 25 25 -17 34 -11 34 22 0 30 14 29 28 -2z m360 3 c29 -29
-7 -86 -47 -73 -26 8 -38 50 -21 70 15 18 51 20 68 3z m-93 -172 c53 -25 114
-82 139 -130 13 -27 13 -32 -4 -66 -21 -41 -83 -101 -132 -126 -49 -25 -164
-30 -226 -10 -59 20 -135 83 -161 135 -17 33 -18 39 -4 66 25 49 85 106 138
131 39 18 67 24 125 24 58 0 86 -6 125 -24z m284 -173 c-14 -17 -31 1 -22 24
4 10 9 11 19 2 11 -9 12 -15 3 -26z m-785 19 c2 -4 0 -14 -5 -22 -8 -13 -10
-13 -18 0 -10 15 -6 30 9 30 5 0 11 -4 14 -8z m236 -347 c0 -19 -4 -35 -10
-35 -5 0 -10 16 -10 35 0 19 5 35 10 35 6 0 10 -16 10 -35z m75 0 c0 -25 -4
-30 -27 -33 -26 -3 -28 -1 -28 33 0 34 2 36 28 33 23 -3 27 -8 27 -33z m65 25
c0 -5 -8 -10 -17 -11 -15 0 -15 -2 -3 -7 25 -12 21 -42 -6 -42 -21 0 -24 5
-24 35 0 31 3 35 25 35 14 0 25 -4 25 -10z m30 -25 c0 -19 -4 -35 -10 -35 -5
0 -10 16 -10 35 0 19 5 35 10 35 6 0 10 -16 10 -35z m95 -24 c19 -3 19 -2 1
17 -10 12 -15 26 -11 31 8 14 45 14 45 0 0 -6 -7 -8 -17 -5 -16 6 -16 6 0 -12
31 -34 21 -43 -42 -40 -58 2 -59 3 -50 27 17 42 22 44 38 15 9 -16 25 -31 36
-33z"/>
<path d="M587 864 c-4 -4 -7 -16 -7 -26 0 -20 25 -25 36 -7 8 13 -19 43 -29
33z"/>
<path d="M663 814 c-3 -8 -1 -20 5 -26 16 -16 42 -2 42 22 0 24 -38 28 -47 4z"/>
<path d="M454 620 c-11 -4 -33 -22 -47 -40 -55 -64 -24 -163 58 -190 74 -24
155 34 155 112 0 90 -85 151 -166 118z m105 -66 c28 -35 26 -69 -4 -99 -50
-51 -129 -20 -129 50 0 71 90 104 133 49z"/>
<path d="M400 165 c0 -8 5 -15 10 -15 6 0 10 7 10 15 0 8 -4 15 -10 15 -5 0
-10 -7 -10 -15z"/>
</g>
</svg>
